<svg width="752" height="260" viewBox="0 0 752 260" fill="none" xmlns="http://www.w3.org/2000/svg">
<g clip-path="url(#clip0)">
<path d="M242.44 132.34H210.23C206.148 132.34 202.84 135.646 202.84 139.725C202.84 143.803 206.148 147.11 210.23 147.11H242.44C246.521 147.11 249.83 143.803 249.83 139.725C249.83 135.646 246.521 132.34 242.44 132.34Z" fill="#F7C948"/>
<path d="M205.787 57.7412L183.011 80.5171C180.125 83.4031 180.123 88.0806 183.007 90.9647C185.891 93.8487 190.569 93.8471 193.455 90.9611L216.231 68.1852C219.117 65.2992 219.118 60.6217 216.234 57.7377C213.35 54.8537 208.673 54.8553 205.787 57.7412Z" fill="#F7C948"/>
<path d="M54.3965 69.7745L77.1724 92.5504C80.0584 95.4363 84.7359 95.4379 87.6199 92.5539C90.504 89.6699 90.5024 84.9924 87.6164 82.1064L64.8405 59.3305C61.9545 56.4445 57.277 56.4429 54.393 59.327C51.509 62.211 51.5106 66.8885 54.3965 69.7745Z" fill="#F7C948"/>
<path d="M127.46 32.3902V64.6002C127.46 68.6816 130.766 71.9902 134.845 71.9902C138.924 71.9902 142.23 68.6816 142.23 64.6002V32.3902C142.23 28.3088 138.924 25.0002 134.845 25.0002C130.766 25.0002 127.46 28.3088 127.46 32.3902Z" fill="#F7C948"/>
<path d="M60.6 132.34H28.39C24.3086 132.34 21 135.646 21 139.725C21 143.803 24.3086 147.11 28.39 147.11H60.6C64.6814 147.11 67.99 143.803 67.99 139.725C67.99 135.646 64.6814 132.34 60.6 132.34Z" fill="#F7C948"/>
<path d="M216.986 96.6684L201.999 102.521C198.197 104.006 196.317 108.289 197.801 112.088C199.285 115.887 203.569 117.764 207.371 116.279L222.359 110.427C226.161 108.942 228.04 104.659 226.556 100.859C225.073 97.0603 220.788 95.1838 216.986 96.6684Z" fill="#F7C948"/>
<path d="M93.7636 58.4711L99.6162 73.459C101.101 77.2608 105.384 79.1401 109.183 77.6566C112.983 76.173 114.859 71.8884 113.374 68.0866L107.522 53.0987C106.037 49.2969 101.754 47.4176 97.9547 48.9011C94.1555 50.3847 92.279 54.6693 93.7636 58.4711Z" fill="#F7C948"/>
<path d="M163.137 53.103L157.285 68.0908C155.8 71.8926 157.677 76.1773 161.476 77.6608C165.275 79.1444 169.558 77.2651 171.043 73.4633L176.896 58.4754C178.38 54.6736 176.504 50.3889 172.704 48.9054C168.905 47.4218 164.622 49.3012 163.137 53.103Z" fill="#F7C948"/>
<path d="M48.9023 110.436L63.8901 116.289C67.6919 117.774 71.9766 115.897 73.4601 112.098C74.9437 108.299 73.0644 104.015 69.2626 102.531L54.2747 96.6782C50.4729 95.1936 46.1883 97.0701 44.7047 100.869C43.2212 104.669 45.1005 108.952 48.9023 110.436Z" fill="#F7C948"/>
<path d="M153.41 183.81C148.15 187.11 140.93 190.25 135.48 190.58C127.83 191.04 127.69 202.67 135.48 202.58C145.638 202.54 155.64 200.082 164.66 195.41C171.92 191.64 178.27 186.46 185.11 182.04C191.11 178.19 199.56 173.36 206.97 175.1C207.883 175.257 208.747 175.623 209.495 176.169C210.243 176.716 210.854 177.428 211.28 178.25C211.83 179.25 211.19 177.88 211.39 178.44C211.51 178.75 211.57 179.11 211.7 179.44C211.98 180.06 212.06 181.95 211.76 179.19L213.52 174.95C189.86 203.37 156.38 229.66 117.1 222.95C93.0301 218.85 71.8501 204.75 54.9501 187.62C52.1401 184.77 49.4301 181.82 46.8601 178.76C46.1101 177.86 45.3802 176.94 44.6402 176.03C43.9002 175.12 45.6401 177.38 44.7401 176.15V182.15C45.3101 181.27 45.3201 181.38 45.0401 181.71C46.0391 180.518 47.1183 179.395 48.2701 178.35C51.9073 175.136 56.2464 172.817 60.9401 171.58C73.9401 168.05 90.0402 171.38 102.78 175.16C107.29 176.49 111.09 177.86 115.9 178.16C121.574 178.42 127.255 177.82 132.75 176.38C136.66 175.394 140.488 174.107 144.2 172.53C147.83 171.02 151.39 168.67 155.29 167.94C158.7 167.3 160.29 168.17 160.46 171.46C160.66 176.41 157.32 181.05 153.41 183.75C147.09 188.1 153.08 198.51 159.46 194.11C169.02 187.52 176.97 173.56 169.88 162.35C160.49 147.5 141.15 161.97 129.56 164.81C122.14 166.63 115.85 166.89 109.3 164.64C95.3801 159.84 78.4701 156.9 63.8601 158.83C52.5501 160.33 40.7301 166.25 34.3801 176.09C33.8353 176.996 33.5474 178.033 33.5474 179.09C33.5474 180.147 33.8353 181.184 34.3801 182.09C51.4901 205.31 77.6201 225.03 105.55 232.57C130.07 239.19 155.55 235 177.44 222.47C192.72 213.75 206.02 201.69 217.57 188.47C221.25 184.28 224.84 180.98 223.04 175.31C221.769 171.287 219.111 167.846 215.54 165.6C203.32 158.07 187.23 165.95 176.78 173.04C170.95 177.04 165.37 181.3 159.13 184.62C151.834 188.444 143.718 190.438 135.48 190.43V202.43C143.99 201.92 152.32 198.5 159.48 194.02C165.99 190.08 159.97 179.69 153.41 183.81Z" fill="#9FB3C8"/>
<path fill-rule="evenodd" clip-rule="evenodd" d="M171.991 176.748C172.193 176.605 172.395 176.463 172.597 176.321C173.962 175.36 175.329 174.398 176.71 173.45C180.724 170.727 185.569 167.888 190.707 165.85C194.869 157.531 197.21 148.144 197.21 138.21C197.21 104.046 169.515 76.3501 135.35 76.3501C101.186 76.3501 73.4902 104.046 73.4902 138.21C73.4902 145.398 74.7162 152.3 76.9704 158.717C81.3229 158.898 85.7357 159.394 90.0915 160.139C86.8745 153.512 85.0703 146.072 85.0703 138.21C85.0703 110.441 107.581 87.9302 135.35 87.9302C163.119 87.9302 185.63 110.441 185.63 138.21C185.63 151.248 180.668 163.127 172.528 172.062C172.537 173.63 172.347 175.2 171.991 176.748Z" fill="#F7C948"/>
</g>
<path d="M287.078 123V66.125H307C313.901 66.125 319.135 67.4531 322.703 70.1094C326.271 72.7396 328.055 76.6068 328.055 81.7109C328.055 84.4974 327.339 86.9583 325.906 89.0938C324.474 91.2031 322.482 92.7526 319.93 93.7422C322.846 94.4714 325.138 95.9427 326.805 98.1562C328.497 100.37 329.344 103.078 329.344 106.281C329.344 111.75 327.599 115.891 324.109 118.703C320.62 121.516 315.646 122.948 309.188 123H287.078ZM298.797 98.2344V113.586H308.836C311.596 113.586 313.745 112.935 315.281 111.633C316.844 110.305 317.625 108.482 317.625 106.164C317.625 100.956 314.93 98.3125 309.539 98.2344H298.797ZM298.797 89.9531H307.469C313.38 89.849 316.336 87.4922 316.336 82.8828C316.336 80.3047 315.581 78.4557 314.07 77.3359C312.586 76.1901 310.229 75.6172 307 75.6172H298.797V89.9531ZM356.883 123.781C350.685 123.781 345.633 121.88 341.727 118.078C337.846 114.276 335.906 109.211 335.906 102.883V101.789C335.906 97.5443 336.727 93.7552 338.367 90.4219C340.008 87.0625 342.326 84.4844 345.32 82.6875C348.341 80.8646 351.779 79.9531 355.633 79.9531C361.414 79.9531 365.958 81.776 369.266 85.4219C372.599 89.0677 374.266 94.237 374.266 100.93V105.539H347.352C347.716 108.299 348.81 110.513 350.633 112.18C352.482 113.846 354.812 114.68 357.625 114.68C361.974 114.68 365.372 113.104 367.82 109.953L373.367 116.164C371.674 118.56 369.383 120.435 366.492 121.789C363.602 123.117 360.398 123.781 356.883 123.781ZM355.594 89.0938C353.354 89.0938 351.531 89.849 350.125 91.3594C348.745 92.8698 347.859 95.0312 347.469 97.8438H363.172V96.9453C363.12 94.4453 362.443 92.5182 361.141 91.1641C359.839 89.7839 357.99 89.0938 355.594 89.0938ZM395.945 107.023L403.758 80.7344H415.867L398.875 129.562L397.938 131.789C395.411 137.31 391.245 140.07 385.438 140.07C383.797 140.07 382.13 139.823 380.438 139.328V130.773L382.156 130.812C384.292 130.812 385.88 130.487 386.922 129.836C387.99 129.185 388.823 128.104 389.422 126.594L390.75 123.117L375.945 80.7344H388.094L395.945 107.023ZM417.938 101.477C417.938 97.2839 418.745 93.5469 420.359 90.2656C421.974 86.9844 424.292 84.4453 427.312 82.6484C430.359 80.8516 433.888 79.9531 437.898 79.9531C443.602 79.9531 448.25 81.6979 451.844 85.1875C455.464 88.6771 457.482 93.4167 457.898 99.4062L457.977 102.297C457.977 108.781 456.167 113.99 452.547 117.922C448.927 121.828 444.07 123.781 437.977 123.781C431.883 123.781 427.013 121.828 423.367 117.922C419.747 114.016 417.938 108.703 417.938 101.984V101.477ZM429.227 102.297C429.227 106.307 429.982 109.38 431.492 111.516C433.003 113.625 435.164 114.68 437.977 114.68C440.711 114.68 442.846 113.638 444.383 111.555C445.919 109.445 446.688 106.086 446.688 101.477C446.688 97.5443 445.919 94.4974 444.383 92.3359C442.846 90.1745 440.685 89.0938 437.898 89.0938C435.138 89.0938 433.003 90.1745 431.492 92.3359C429.982 94.4714 429.227 97.7917 429.227 102.297ZM475.32 80.7344L475.672 85.6172C478.693 81.8411 482.742 79.9531 487.82 79.9531C492.299 79.9531 495.633 81.2682 497.82 83.8984C500.008 86.5286 501.128 90.4609 501.18 95.6953V123H489.891V95.9688C489.891 93.5729 489.37 91.8411 488.328 90.7734C487.286 89.6797 485.555 89.1328 483.133 89.1328C479.956 89.1328 477.573 90.487 475.984 93.1953V123H464.695V80.7344H475.32ZM508.016 101.555C508.016 94.9661 509.487 89.7188 512.43 85.8125C515.398 81.9062 519.448 79.9531 524.578 79.9531C528.693 79.9531 532.091 81.4896 534.773 84.5625V63H546.102V123H535.906L535.359 118.508C532.547 122.023 528.927 123.781 524.5 123.781C519.526 123.781 515.529 121.828 512.508 117.922C509.513 113.99 508.016 108.534 508.016 101.555ZM519.305 102.375C519.305 106.333 519.995 109.367 521.375 111.477C522.755 113.586 524.76 114.641 527.391 114.641C530.88 114.641 533.341 113.169 534.773 110.227V93.5469C533.367 90.6042 530.932 89.1328 527.469 89.1328C522.026 89.1328 519.305 93.5469 519.305 102.375ZM331.727 198.055C331.284 204.174 329.018 208.992 324.93 212.508C320.867 216.023 315.503 217.781 308.836 217.781C301.544 217.781 295.802 215.333 291.609 210.438C287.443 205.516 285.359 198.771 285.359 190.203V186.727C285.359 181.258 286.323 176.44 288.25 172.273C290.177 168.107 292.924 164.917 296.492 162.703C300.086 160.464 304.253 159.344 308.992 159.344C315.555 159.344 320.841 161.102 324.852 164.617C328.862 168.133 331.18 173.068 331.805 179.422H320.086C319.799 175.75 318.771 173.094 317 171.453C315.255 169.786 312.586 168.953 308.992 168.953C305.086 168.953 302.156 170.359 300.203 173.172C298.276 175.958 297.286 180.294 297.234 186.18V190.477C297.234 196.622 298.159 201.115 300.008 203.953C301.883 206.792 304.826 208.211 308.836 208.211C312.456 208.211 315.151 207.391 316.922 205.75C318.719 204.083 319.747 201.518 320.008 198.055H331.727ZM336.922 195.477C336.922 191.284 337.729 187.547 339.344 184.266C340.958 180.984 343.276 178.445 346.297 176.648C349.344 174.852 352.872 173.953 356.883 173.953C362.586 173.953 367.234 175.698 370.828 179.188C374.448 182.677 376.466 187.417 376.883 193.406L376.961 196.297C376.961 202.781 375.151 207.99 371.531 211.922C367.911 215.828 363.055 217.781 356.961 217.781C350.867 217.781 345.997 215.828 342.352 211.922C338.732 208.016 336.922 202.703 336.922 195.984V195.477ZM348.211 196.297C348.211 200.307 348.966 203.38 350.477 205.516C351.987 207.625 354.148 208.68 356.961 208.68C359.695 208.68 361.831 207.638 363.367 205.555C364.904 203.445 365.672 200.086 365.672 195.477C365.672 191.544 364.904 188.497 363.367 186.336C361.831 184.174 359.669 183.094 356.883 183.094C354.122 183.094 351.987 184.174 350.477 186.336C348.966 188.471 348.211 191.792 348.211 196.297ZM394.5 174.734L394.852 179.461C397.846 175.789 401.896 173.953 407 173.953C412.443 173.953 416.18 176.102 418.211 180.398C421.18 176.102 425.411 173.953 430.906 173.953C435.49 173.953 438.901 175.294 441.141 177.977C443.38 180.633 444.5 184.643 444.5 190.008V217H433.172V190.047C433.172 187.651 432.703 185.906 431.766 184.812C430.828 183.693 429.174 183.133 426.805 183.133C423.419 183.133 421.076 184.747 419.773 187.977L419.812 217H408.523V190.086C408.523 187.638 408.042 185.867 407.078 184.773C406.115 183.68 404.474 183.133 402.156 183.133C398.953 183.133 396.635 184.461 395.203 187.117V217H383.914V174.734H394.5ZM491.258 196.258C491.258 202.768 489.773 207.99 486.805 211.922C483.862 215.828 479.878 217.781 474.852 217.781C470.581 217.781 467.13 216.297 464.5 213.328V233.25H453.211V174.734H463.68L464.07 178.875C466.805 175.594 470.372 173.953 474.773 173.953C479.982 173.953 484.031 175.88 486.922 179.734C489.812 183.589 491.258 188.901 491.258 195.672V196.258ZM479.969 195.438C479.969 191.505 479.266 188.471 477.859 186.336C476.479 184.201 474.461 183.133 471.805 183.133C468.263 183.133 465.828 184.487 464.5 187.195V204.5C465.88 207.286 468.341 208.68 471.883 208.68C477.273 208.68 479.969 204.266 479.969 195.438ZM522.781 217C522.26 215.984 521.883 214.721 521.648 213.211C518.914 216.258 515.359 217.781 510.984 217.781C506.844 217.781 503.406 216.583 500.672 214.188C497.964 211.792 496.609 208.771 496.609 205.125C496.609 200.646 498.263 197.208 501.57 194.812C504.904 192.417 509.708 191.206 515.984 191.18H521.18V188.758C521.18 186.805 520.672 185.242 519.656 184.07C518.667 182.898 517.091 182.312 514.93 182.312C513.029 182.312 511.531 182.768 510.438 183.68C509.37 184.591 508.836 185.841 508.836 187.43H497.547C497.547 184.982 498.302 182.716 499.812 180.633C501.323 178.549 503.458 176.922 506.219 175.75C508.979 174.552 512.078 173.953 515.516 173.953C520.724 173.953 524.852 175.268 527.898 177.898C530.971 180.503 532.508 184.174 532.508 188.914V207.234C532.534 211.245 533.094 214.279 534.188 216.336V217H522.781ZM513.445 209.148C515.112 209.148 516.648 208.784 518.055 208.055C519.461 207.299 520.503 206.297 521.18 205.047V197.781H516.961C511.31 197.781 508.302 199.734 507.938 203.641L507.898 204.305C507.898 205.711 508.393 206.87 509.383 207.781C510.372 208.693 511.727 209.148 513.445 209.148ZM564.07 205.32C564.07 203.94 563.38 202.859 562 202.078C560.646 201.271 558.458 200.555 555.438 199.93C545.385 197.82 540.359 193.549 540.359 187.117C540.359 183.367 541.909 180.242 545.008 177.742C548.133 175.216 552.208 173.953 557.234 173.953C562.599 173.953 566.883 175.216 570.086 177.742C573.315 180.268 574.93 183.549 574.93 187.586H563.641C563.641 185.971 563.12 184.643 562.078 183.602C561.036 182.534 559.409 182 557.195 182C555.294 182 553.823 182.43 552.781 183.289C551.74 184.148 551.219 185.242 551.219 186.57C551.219 187.82 551.805 188.836 552.977 189.617C554.174 190.372 556.18 191.036 558.992 191.609C561.805 192.156 564.174 192.781 566.102 193.484C572.065 195.672 575.047 199.461 575.047 204.852C575.047 208.706 573.393 211.831 570.086 214.227C566.779 216.596 562.508 217.781 557.273 217.781C553.732 217.781 550.581 217.156 547.82 215.906C545.086 214.63 542.938 212.898 541.375 210.711C539.812 208.497 539.031 206.115 539.031 203.562H549.734C549.839 205.568 550.581 207.104 551.961 208.172C553.341 209.24 555.19 209.773 557.508 209.773C559.669 209.773 561.297 209.37 562.391 208.562C563.51 207.729 564.07 206.648 564.07 205.32ZM605.242 205.32C605.242 203.94 604.552 202.859 603.172 202.078C601.818 201.271 599.63 200.555 596.609 199.93C586.557 197.82 581.531 193.549 581.531 187.117C581.531 183.367 583.081 180.242 586.18 177.742C589.305 175.216 593.38 173.953 598.406 173.953C603.771 173.953 608.055 175.216 611.258 177.742C614.487 180.268 616.102 183.549 616.102 187.586H604.812C604.812 185.971 604.292 184.643 603.25 183.602C602.208 182.534 600.581 182 598.367 182C596.466 182 594.995 182.43 593.953 183.289C592.911 184.148 592.391 185.242 592.391 186.57C592.391 187.82 592.977 188.836 594.148 189.617C595.346 190.372 597.352 191.036 600.164 191.609C602.977 192.156 605.346 192.781 607.273 193.484C613.237 195.672 616.219 199.461 616.219 204.852C616.219 208.706 614.565 211.831 611.258 214.227C607.951 216.596 603.68 217.781 598.445 217.781C594.904 217.781 591.753 217.156 588.992 215.906C586.258 214.63 584.109 212.898 582.547 210.711C580.984 208.497 580.203 206.115 580.203 203.562H590.906C591.01 205.568 591.753 207.104 593.133 208.172C594.513 209.24 596.362 209.773 598.68 209.773C600.841 209.773 602.469 209.37 603.562 208.562C604.682 207.729 605.242 206.648 605.242 205.32ZM635.438 217H624.109V174.734H635.438V217ZM623.445 163.797C623.445 162.104 624.005 160.711 625.125 159.617C626.271 158.523 627.82 157.977 629.773 157.977C631.701 157.977 633.237 158.523 634.383 159.617C635.529 160.711 636.102 162.104 636.102 163.797C636.102 165.516 635.516 166.922 634.344 168.016C633.198 169.109 631.674 169.656 629.773 169.656C627.872 169.656 626.336 169.109 625.164 168.016C624.018 166.922 623.445 165.516 623.445 163.797ZM643.016 195.477C643.016 191.284 643.823 187.547 645.438 184.266C647.052 180.984 649.37 178.445 652.391 176.648C655.438 174.852 658.966 173.953 662.977 173.953C668.68 173.953 673.328 175.698 676.922 179.188C680.542 182.677 682.56 187.417 682.977 193.406L683.055 196.297C683.055 202.781 681.245 207.99 677.625 211.922C674.005 215.828 669.148 217.781 663.055 217.781C656.961 217.781 652.091 215.828 648.445 211.922C644.826 208.016 643.016 202.703 643.016 195.984V195.477ZM654.305 196.297C654.305 200.307 655.06 203.38 656.57 205.516C658.081 207.625 660.242 208.68 663.055 208.68C665.789 208.68 667.924 207.638 669.461 205.555C670.997 203.445 671.766 200.086 671.766 195.477C671.766 191.544 670.997 188.497 669.461 186.336C667.924 184.174 665.763 183.094 662.977 183.094C660.216 183.094 658.081 184.174 656.57 186.336C655.06 188.471 654.305 191.792 654.305 196.297ZM700.398 174.734L700.75 179.617C703.771 175.841 707.82 173.953 712.898 173.953C717.378 173.953 720.711 175.268 722.898 177.898C725.086 180.529 726.206 184.461 726.258 189.695V217H714.969V189.969C714.969 187.573 714.448 185.841 713.406 184.773C712.365 183.68 710.633 183.133 708.211 183.133C705.034 183.133 702.651 184.487 701.062 187.195V217H689.773V174.734H700.398Z" fill="#4098D7"/>
<defs>
<clipPath id="clip0">
<rect width="228.83" height="210.8" fill="white" transform="translate(21 25)"/>
</clipPath>
</defs>
</svg>
